<svg width="24" height="24" viewBox="0 0 24 24" fill="none" xmlns="http://www.w3.org/2000/svg">
<path d="M2 8C2 6.11438 2 5.17157 2.58579 4.58579C3.17157 4 4.11438 4 6 4H18C19.8856 4 20.8284 4 21.4142 4.58579C22 5.17157 22 6.11438 22 8C22 8.4714 22 8.70711 21.8536 8.85355C21.7071 9 21.4714 9 21 9H3C2.5286 9 2.29289 9 2.14645 8.85355C2 8.70711 2 8.4714 2 8Z" fill="#394C62"/>
<path d="M2 17C2 18.8856 2 19.8284 2.58579 20.4142C3.17157 21 4.11438 21 6 21H18C19.8856 21 20.8284 21 21.4142 20.4142C22 19.8284 22 18.8856 22 17V12C22 11.5286 22 11.2929 21.8536 11.1464C21.7071 11 21.4714 11 21 11H3C2.5286 11 2.29289 11 2.14645 11.1464C2 11.2929 2 11.5286 2 12V17Z" fill="#394C62"/>
<path d="M7 2L7 5" stroke="#394C62" stroke-width="2" stroke-linecap="round"/>
<path d="M17 2L17 5" stroke="#394C62" stroke-width="2" stroke-linecap="round"/>
</svg>
