<svg width="12" height="12" viewBox="0 0 12 12" fill="none" xmlns="http://www.w3.org/2000/svg">
<path d="M5.99965 8.00014C5.88282 8.00037 5.76961 7.95968 5.67965 7.88514L2.67965 5.38514C2.57754 5.30027 2.51333 5.17831 2.50114 5.0461C2.48895 4.91389 2.52978 4.78225 2.61465 4.68014C2.69952 4.57803 2.82147 4.51382 2.95369 4.50163C3.0859 4.48944 3.21754 4.53027 3.31965 4.61514L5.99965 6.85514L8.67965 4.69514C8.73079 4.6536 8.78964 4.62259 8.85281 4.60387C8.91598 4.58516 8.98223 4.57911 9.04774 4.58608C9.11325 4.59305 9.17675 4.6129 9.23456 4.64448C9.29238 4.67607 9.34339 4.71877 9.38465 4.77014C9.43044 4.82155 9.46512 4.88186 9.48652 4.9473C9.50791 5.01274 9.51556 5.08189 9.50899 5.15042C9.50242 5.21895 9.48177 5.28538 9.44833 5.34556C9.41488 5.40574 9.36937 5.45837 9.31465 5.50014L6.31465 7.91514C6.22211 7.97789 6.1112 8.00782 5.99965 8.00014V8.00014Z" fill="#1E1E1E"/>
</svg>
