<svg width="12" height="6" viewBox="0 0 12 6" fill="none" xmlns="http://www.w3.org/2000/svg">
<path d="M6.00941 0.00202713C6.20934 0.00163606 6.40308 0.0713499 6.55703 0.199068L11.6909 4.48257C11.8656 4.62798 11.9755 4.83694 11.9964 5.06348C12.0172 5.29001 11.9474 5.51556 11.8021 5.69052C11.6569 5.86547 11.4482 5.97549 11.2219 5.99637C10.9957 6.01726 10.7704 5.9473 10.5957 5.80189L6.00941 1.96387L1.42315 5.66481C1.33563 5.73598 1.23492 5.78912 1.12682 5.82119C1.01872 5.85325 0.905356 5.86361 0.793242 5.85167C0.681128 5.83973 0.572476 5.80572 0.473532 5.7516C0.374588 5.69748 0.287303 5.62431 0.216692 5.53631C0.138333 5.44822 0.0789859 5.34488 0.0423706 5.23276C0.00575524 5.12064 -0.00733852 5.00216 0.00390729 4.88474C0.0151531 4.76732 0.0504963 4.65348 0.107725 4.55037C0.164953 4.44726 0.242833 4.3571 0.336484 4.28553L5.47036 0.147666C5.62872 0.0401366 5.81852 -0.0111411 6.00941 0.00202713V0.00202713Z" fill="#4279B8"/>
</svg>
