<svg width="24" height="24" viewBox="0 0 24 24" fill="none" xmlns="http://www.w3.org/2000/svg">
<path d="M21.1429 0H2.85714C1.28 0 0 1.28 0 2.85714V21.1429C0 22.72 1.28 24 2.85714 24H21.1429C22.72 24 24 22.72 24 21.1429V2.85714C24 1.28 22.72 0 21.1429 0ZM15.0343 18.0914C13.6914 19.0057 12.4571 19.7257 12 19.9143C11.8171 19.9886 11.68 20.0229 11.5714 20.0229C11.1943 20.0229 11.2286 19.6229 11.2571 19.4571C11.28 19.3314 11.3829 18.7371 11.3829 18.7371C11.4114 18.5257 11.44 18.1886 11.3543 17.9771C11.2571 17.7429 10.8743 17.6229 10.5943 17.5657C6.48 17.0286 3.42857 14.2 3.42857 10.8286C3.42857 7.06286 7.27429 4 12 4C16.7257 4 20.5714 7.06286 20.5714 10.8286C20.5714 12.3314 19.9771 13.6914 18.7314 15.0286C17.8343 16.0457 16.3771 17.1657 15.0343 18.0914Z" fill="#4279B8"/>
<path d="M8.4 13.8002H6.6C6.2688 13.8002 6 13.5314 6 13.2002V9.60019C6 9.26899 6.2688 9.00019 6.6 9.00019C6.9312 9.00019 7.2 9.26899 7.2 9.60019V12.6002H8.4C8.7312 12.6002 9 12.869 9 13.2002C9 13.5314 8.7312 13.8002 8.4 13.8002ZM10.8 13.2002C10.8 13.5314 10.5312 13.8002 10.2 13.8002C9.8688 13.8002 9.6 13.5314 9.6 13.2002V9.60019C9.6 9.26899 9.8688 9.00019 10.2 9.00019C10.5312 9.00019 10.8 9.26899 10.8 9.60019V13.2002ZM15 13.2002C15 13.784 14.2512 14.024 13.9116 13.5488L12.6 11.4728V13.2002C12.6 13.5314 12.3312 13.8002 12 13.8002C11.6688 13.8002 11.4 13.5314 11.4 13.2002V9.60019C11.4 9.01639 12.1488 8.77639 12.4884 9.25159L13.8 11.4002V9.60019C13.8 9.26899 14.0688 9.00019 14.4 9.00019C14.7312 9.00019 15 9.26899 15 9.60019V13.2002ZM18 10.8002C18.3318 10.8002 18.6 11.069 18.6 11.4002C18.6 11.7314 18.3318 12.0002 18 12.0002H16.8V12.6002H18C18.3312 12.6002 18.6 12.869 18.6 13.2002C18.6 13.5314 18.3312 13.8002 18 13.8002H16.2C15.8688 13.8002 15.6 13.5314 15.6 13.2002V9.60019C15.6 9.26899 15.8688 9.00019 16.2 9.00019H18C18.3312 9.00019 18.6 9.26899 18.6 9.60019C18.6 9.93139 18.3312 10.2002 18 10.2002H16.8V10.8002H18Z" fill="#4279B8"/>
</svg>
