<svg width="148" height="48" viewBox="0 0 148 48" fill="none" xmlns="http://www.w3.org/2000/svg">
<path d="M128.895 24.0125C128.895 24.2791 128.802 24.5374 128.632 24.7427L122.909 31.5879C122.715 31.8208 122.436 31.9674 122.133 31.9952C121.831 32.023 121.529 31.9298 121.296 31.7362C121.062 31.5425 120.915 31.2643 120.887 30.9626C120.859 30.6609 120.953 30.3605 121.147 30.1276L126.274 24.0125L121.33 17.8975C121.235 17.7808 121.164 17.6466 121.121 17.5024C121.078 17.3583 121.065 17.2071 121.08 17.0577C121.096 16.9082 121.142 16.7633 121.214 16.6314C121.286 16.4995 121.384 16.3831 121.502 16.2889C121.619 16.1844 121.757 16.1053 121.907 16.0565C122.057 16.0077 122.215 15.9902 122.372 16.0052C122.529 16.0202 122.681 16.0673 122.819 16.1436C122.957 16.2199 123.077 16.3238 123.173 16.4486L128.7 23.2938C128.844 23.505 128.913 23.758 128.895 24.0125V24.0125Z" fill="#FDFDFD"/>
<path d="M147 24C147 36.7007 136.684 47 123.954 47C111.224 47 100.908 36.7007 100.908 24C100.908 11.2993 111.224 1 123.954 1C136.684 1 147 11.2993 147 24Z" stroke="#FDFDFD" stroke-width="2"/>
<line x1="8.74228e-08" y1="25" x2="100.192" y2="25" stroke="#FDFDFD" stroke-width="2"/>
</svg>
