<svg width="24" height="24" viewBox="0 0 24 24" fill="none" xmlns="http://www.w3.org/2000/svg">
<path fill-rule="evenodd" clip-rule="evenodd" d="M0.87868 3.87868C0 4.75736 0 6.17157 0 9V15C0 17.8284 0 19.2426 0.87868 20.1213C1.75736 21 3.17157 21 6 21H18C20.8284 21 22.2426 21 23.1213 20.1213C24 19.2426 24 17.8284 24 15V9C24 6.17157 24 4.75736 23.1213 3.87868C22.2426 3 20.8284 3 18 3H6C3.17157 3 1.75736 3 0.87868 3.87868ZM4.54076 7.3014C4.07619 7.00275 3.45747 7.13725 3.15882 7.60182C2.86017 8.06639 2.99467 8.6851 3.45924 8.98376L10.9185 13.779C11.5773 14.2025 12.4227 14.2025 13.0815 13.779L20.5408 8.98376C21.0053 8.6851 21.1398 8.06639 20.8412 7.60182C20.5425 7.13725 19.9238 7.00275 19.4592 7.3014L12 12.0966L4.54076 7.3014Z" fill="#4279B8"/>
</svg>
