<svg width="24" height="24" viewBox="0 0 24 24" fill="none" xmlns="http://www.w3.org/2000/svg">
<path d="M3.67962 2.63617L5.60868 0.707107C5.99921 0.316582 6.63237 0.316583 7.0229 0.707108L10.6613 4.34552C11.0518 4.73605 11.0518 5.36921 10.6613 5.75974L8.21113 8.20992C7.8336 8.58745 7.74 9.16422 7.97878 9.64177C9.3591 12.4024 11.5976 14.6409 14.3582 16.0212C14.8358 16.26 15.4125 16.1664 15.7901 15.7889L18.2403 13.3387C18.6308 12.9482 19.264 12.9482 19.6545 13.3387L23.2929 16.9771C23.6834 17.3676 23.6834 18.0008 23.2929 18.3913L21.3638 20.3204C19.2525 22.4317 15.9099 22.6693 13.5212 20.8777L10.2075 18.3925C8.46399 17.0848 6.91517 15.536 5.60752 13.7925L3.12226 10.4788C1.33072 8.09009 1.56827 4.74752 3.67962 2.63617Z" fill="#4279B8"/>
</svg>
