<svg width="24" height="25" viewBox="0 0 24 25" fill="none" xmlns="http://www.w3.org/2000/svg">
<path fill-rule="evenodd" clip-rule="evenodd" d="M12.4011 20.3762C14.1474 19.4876 21 15.581 21 9C21 4.02944 16.9706 0 12 0C7.02944 0 3 4.02944 3 9C3 15.581 9.85259 19.4876 11.5989 20.3762C11.8528 20.5054 12.1472 20.5054 12.4011 20.3762ZM11.9997 12.8569C14.13 12.8569 15.8569 11.13 15.8569 8.99972C15.8569 6.86948 14.13 5.14258 11.9997 5.14258C9.86948 5.14258 8.14258 6.86948 8.14258 8.99972C8.14258 11.13 9.86948 12.8569 11.9997 12.8569Z" fill="#4279B8"/>
<path d="M19.7942 18.75C20.5841 19.2821 21 19.8856 21 20.5C21 21.1144 20.5841 21.7179 19.7942 22.25C19.0043 22.7821 17.8682 23.2239 16.5 23.5311C15.1318 23.8383 13.5798 24 12 24C10.4202 24 8.86817 23.8383 7.5 23.5311C6.13183 23.2239 4.99569 22.7821 4.20577 22.25C3.41586 21.7179 3 21.1144 3 20.5C3 19.8856 3.41586 19.2821 4.20577 18.75" stroke="#4279B8" stroke-width="2" stroke-linecap="round"/>
</svg>
