<svg width="16" height="16" viewBox="0 0 16 16" fill="none" xmlns="http://www.w3.org/2000/svg">
<path d="M15.7623 3.29098C15.2057 3.53764 14.6077 3.70431 13.979 3.77964C14.6277 3.39151 15.113 2.78062 15.3443 2.06098C14.7349 2.42297 14.0679 2.67777 13.3723 2.81431C12.9046 2.31489 12.285 1.98386 11.6099 1.87263C10.9347 1.76139 10.2417 1.87617 9.63849 2.19915C9.03525 2.52212 8.55552 3.03522 8.27377 3.65878C7.99202 4.28234 7.92402 4.98148 8.08033 5.64764C6.84546 5.58564 5.63742 5.26468 4.53462 4.70558C3.43181 4.14648 2.45889 3.36175 1.679 2.40231C1.41233 2.86231 1.259 3.39564 1.259 3.96364C1.2587 4.47497 1.38462 4.97847 1.62559 5.42947C1.86655 5.88046 2.21511 6.265 2.64033 6.54898C2.14718 6.53329 1.66492 6.40003 1.23367 6.16031V6.20031C1.23362 6.91747 1.48169 7.61256 1.93579 8.16764C2.38989 8.72272 3.02205 9.1036 3.725 9.24565C3.26752 9.36945 2.78789 9.38769 2.32233 9.29898C2.52066 9.91605 2.907 10.4557 3.42724 10.8423C3.94749 11.2289 4.57561 11.4431 5.22367 11.455C4.12356 12.3186 2.76493 12.787 1.36633 12.785C1.11859 12.785 0.871051 12.7706 0.625 12.7416C2.04465 13.6544 3.69723 14.1389 5.385 14.137C11.0983 14.137 14.2217 9.40498 14.2217 5.30098C14.2217 5.16764 14.2183 5.03298 14.2123 4.89964C14.8199 4.46029 15.3443 3.91624 15.761 3.29298L15.7623 3.29098Z" fill="#4279B8"/>
</svg>
